# xmcd
#
# Track frame offsets:
#	150
#	17982
#	34749
#	56787
#	74283
#	93369
#	110922
#	130756
#	146536
#	164488
#	185081
#	203829
#	227523
#	246060
#	267292
#
# Disc length: 3777 seconds
#
# Revision: 1
# Processed by: cddbd v1.5.2PL0 Copyright (c) Steve Scherf et al.
# Submitted via: audiograbber 1.83.01
#
DISCID=dc0ebf0f
DTITLE=Various Artist - Nashville Outlaws A Tribute To Motley Crue
DYEAR=2014
DGENRE=Country
TTITLE0=Rascal Flatts - Kickstart my heart
TTITLE1=Florida Georgia Line - If I die tomorrow
TTITLE2=LeAnn Rimes - Smokin' in the boys room
TTITLE3=Justin Moore ft. Vince Neil - Home sweet home
TTITLE4=Cassadee Pope ft. Robin Zander - the animal in me
TTITLE5=Aaron Lewis - Afraid
TTITLE6=Big and Rich - Same ol' situation (s.o.s)
TTITLE7=Clare Bowen and Sam Paladio - Without you
TTITLE8=Eli Young Band - Don't go away mad (just go away)
TTITLE9=Lauren Jenkins - Looks that kill
TTITLE10=The Cadillac Three - Live wire
TTITLE11=The Mavericks - Dr. Feelgood
TTITLE12=Brantley Gilbert - Girls girls girls
TTITLE13=Gretchen Wilson - Wild side
TTITLE14=Darius Rcuker - Time for change
EXTD=
EXTT0=
EXTT1=
EXTT2=
EXTT3=
EXTT4=
EXTT5=
EXTT6=
EXTT7=
EXTT8=
EXTT9=
EXTT10=
EXTT11=
EXTT12=
EXTT13=
EXTT14=
PLAYORDER=
